# xmcd CD database file
# Copyright (C) 1997 Ti Kan
# 
# Track frame offsets:
#     182
#     19555
#     40117
#     56267
#     72200
#     96617
#     106002
#     123445
#     139657
#     156697
#     175530
#     190145
#     206552
# 
# Disc length: 2963 seconds
# 
# Revision: 1
# Processed by: cddbd v1.4b41PL1 Copyright (c) Steve Scherf et al.
# Submitted via: DiscPlay 4.0.4
# 
DISCID=ad0b910d
DTITLE=Archie Edwards - Blues 'N Bones
DYEAR=1900
DGENRE=
TTITLE0=John Henry
TTITLE1=Meet Me In The Bottom
TTITLE2=I Called My Baby Long Distance
TTITLE3=That Won't Do
TTITLE4=My Old School Mates
TTITLE5=Hen's Cackle
TTITLE6=Saturday Night Hop
TTITLE7=Baby, Please Gimme A Break
TTITLE8=T For Texas
TTITLE9=Sitting On Top Of The World
TTITLE10=Payday
TTITLE11=Take Me Back Baby
TTITLE12=Little Girl
EXTD=
EXTT0=
EXTT1=
EXTT2=
EXTT3=
EXTT4=
EXTT5=
EXTT6=
EXTT7=
EXTT8=
EXTT9=
EXTT10=
EXTT11=
EXTT12=
PLAYORDER=
